<?xml version="1.0" encoding="UTF-8"?>
<svg version="1.1" xmlns="http://www.w3.org/2000/svg" width="500" height="500">
<path d="M0 0 C165 0 330 0 500 0 C500 165 500 330 500 500 C335 500 170 500 0 500 C0 335 0 170 0 0 Z " fill="#FA7722" transform="translate(0,0)"/>
<path d="M0 0 C165 0 330 0 500 0 C500 165 500 330 500 500 C335 500 170 500 0 500 C0 335 0 170 0 0 Z M58.4453125 67.859375 C44.74837145 85.29184543 40.82351648 105.34873359 40.87301636 127.01017761 C40.87145637 128.07394554 40.86989638 129.13771347 40.86828911 130.23371679 C40.86432176 133.77455929 40.86745222 137.3153584 40.87060547 140.85620117 C40.8692495 143.40473455 40.86746846 145.95326773 40.86529541 148.50180054 C40.86121551 154.69245361 40.86180383 160.8830908 40.86470805 167.07374408 C40.86697245 172.11056319 40.86727012 177.14737891 40.86618423 182.18419838 C40.866031 182.90288192 40.86587777 183.62156546 40.86571989 184.36202729 C40.86540014 185.82238298 40.86507593 187.28273867 40.8647473 188.74309436 C40.8618992 202.42136391 40.8651685 216.09962674 40.87054767 229.77789519 C40.87501032 241.48743154 40.87424292 253.19695797 40.86962891 264.90649414 C40.86426306 278.53025596 40.86217883 292.1540119 40.86524117 305.77777463 C40.86555969 307.23409068 40.86587406 308.69040674 40.86618423 310.14672279 C40.86633851 310.86309501 40.86649279 311.57946724 40.86665174 312.31754771 C40.86751123 317.33955522 40.8660662 322.36155897 40.86370468 327.3835659 C40.86058762 334.16089864 40.86284466 340.93820993 40.86859894 347.71554184 C40.86991423 350.1942002 40.86955348 352.67286015 40.86733627 355.15151787 C40.38712399 378.46520275 40.38712399 378.46520275 44 401.375 C44.3237561 402.56053467 44.3237561 402.56053467 44.65405273 403.77001953 C49.97588477 421.94433868 61.16940522 438.67050596 78 448 C80.51064114 449.32250674 83.05005207 450.55775525 85.625 451.75 C86.21506836 452.03214355 86.80513672 452.31428711 87.41308594 452.60498047 C103.12657065 459.44742189 120.63903883 458.42999416 137.37329102 458.38818359 C140.11975841 458.39060671 142.86621085 458.39749261 145.6126709 458.40411377 C152.26374559 458.41737283 158.91471806 458.41460872 165.56579656 458.40587585 C170.97624015 458.39906919 176.38665532 458.39819538 181.79710197 458.4014473 C182.95716871 458.40213684 182.95716871 458.40213684 184.14067115 458.40284032 C185.71231764 458.40379961 187.28396412 458.40477225 188.8556106 458.4057581 C203.55256938 458.41428891 218.24947179 458.40451397 232.94642132 458.388357 C245.52802977 458.37495325 258.10955515 458.37728686 270.69116211 458.39111328 C285.3411678 458.40720546 299.99112425 458.41346794 314.64113754 458.40427649 C316.20632962 458.40332095 317.7715217 458.40237784 319.33671379 458.4014473 C320.10659829 458.40098447 320.87648279 458.40052164 321.66969712 458.40004479 C327.06748989 458.39746599 332.46525114 458.40180175 337.86303902 458.40888596 C344.44986636 458.41734162 351.03658659 458.41493597 357.62340183 458.39904372 C360.97728866 458.39121555 364.33085174 458.38961841 367.68475914 458.39799118 C394.58356303 458.45892405 418.06786755 455.40793872 438.23828125 435.84765625 C454.5161624 419.06324981 459.15970347 395.35175453 459.14044189 372.73716736 C459.14341302 371.6341239 459.14638414 370.53108044 459.1494453 369.39461142 C459.15808616 365.71480802 459.15963663 362.03503733 459.16113281 358.35522461 C459.16576426 355.70993906 459.17076931 353.06465641 459.17617798 350.41937256 C459.18971386 343.2434419 459.19577858 336.06751687 459.20018864 328.89157557 C459.20295908 324.4036483 459.20719786 319.91572315 459.21169281 315.42779732 C459.22387922 302.98112467 459.23417981 290.53445371 459.2375679 278.08777523 C459.23778747 277.29239366 459.23800703 276.4970121 459.23823325 275.67752806 C459.23845153 274.8803374 459.23866981 274.08314675 459.2388947 273.2617988 C459.23933815 271.64661912 459.23978472 270.03143944 459.24023438 268.41625977 C459.2404558 267.61508964 459.24067723 266.81391952 459.24090537 265.98847152 C459.24485006 253.01827487 459.26229684 240.04813451 459.2855939 227.07795959 C459.30936647 213.73440875 459.32177243 200.39088609 459.32293582 187.04731375 C459.32384926 179.56640748 459.32951767 172.08557458 459.34775543 164.60468864 C459.36323639 158.23256211 459.36823014 151.86053164 459.36001733 145.48838984 C459.35613888 142.2438107 459.35856929 138.99946282 459.37107468 135.75489998 C459.43770416 117.380524 458.69281198 101.01676461 451 84 C450.58105469 83.06671875 450.16210938 82.1334375 449.73046875 81.171875 C441.611428 64.79340663 426.20906209 52.2370827 409.03320312 46.32275391 C398.22668132 42.97294467 387.88163378 41.85021556 376.62963867 41.85955811 C375.50294832 41.85658698 374.37625797 41.85361586 373.21542549 41.8505547 C369.44959899 41.84190076 365.6838044 41.84036225 361.91796875 41.83886719 C359.2137178 41.83477168 356.50947015 41.82923181 353.80522156 41.82382202 C346.46394767 41.81027555 339.12267926 41.80421957 331.78139496 41.79981136 C327.19078965 41.79704234 322.60018642 41.79280377 318.00958252 41.78830719 C305.28072238 41.77611867 292.5518639 41.76581897 279.82299805 41.7624321 C279.00927569 41.76221253 278.19555334 41.76199297 277.35717273 41.76176675 C276.54158428 41.76154847 275.72599584 41.76133019 274.8856926 41.7611053 C273.23320262 41.76066184 271.58071264 41.76021528 269.92822266 41.75976562 C269.10854334 41.7595442 268.28886403 41.75932277 267.44434595 41.75909463 C254.17662609 41.75515057 240.90896127 41.73770665 227.64126265 41.7144061 C213.99490019 41.69063554 200.34856529 41.67822764 186.70218182 41.67706418 C179.05023382 41.67615055 171.39835756 41.67047743 163.74642944 41.65224457 C157.22788806 41.63676625 150.70944058 41.63176828 144.19088429 41.63998267 C140.87134655 41.64386227 137.55214956 41.64142675 134.2326107 41.62892532 C105.49131051 41.52708742 78.64678658 45.2485508 58.4453125 67.859375 Z " fill="#F8F6F2" transform="translate(0,0)"/>
<path d="M0 0 C1.2375 0.19464844 2.475 0.38929687 3.75 0.58984375 C19.87294716 3.4762612 34.70882943 9.09264811 49 17 C49.66193359 17.36528809 50.32386719 17.73057617 51.00585938 18.10693359 C59.15567883 22.66299156 66.23907517 27.50577832 73 34 C74.36935998 35.19399938 75.74427996 36.38165563 77.125 37.5625 C84.22038758 43.78849226 90.3402932 50.43321809 96 58 C96.7734375 59.03382813 97.546875 60.06765625 98.34375 61.1328125 C121.27511238 93.02975147 129.67094138 133.32416341 123.4128418 171.90112305 C120.99942353 185.26203346 116.73267177 197.69745935 111 210 C110.49984375 211.12792969 109.9996875 212.25585938 109.484375 213.41796875 C105.21211384 222.59503459 99.66401626 230.29811782 93.40869141 238.21240234 C92.16499103 239.7906301 90.94577835 241.38808875 89.73046875 242.98828125 C85.59882941 248.35859748 81.25493066 252.74359079 76 257 C74.93016928 257.91440572 73.86123497 258.82986077 72.79296875 259.74609375 C59.00428501 271.3834718 43.59582034 279.14918675 27 286 C26.10023438 286.39960938 25.20046875 286.79921875 24.2734375 287.2109375 C17.40097517 290.18825831 10.34714712 291.65182642 3 293 C1.96746094 293.20753906 0.93492187 293.41507812 -0.12890625 293.62890625 C-29.77154231 298.83000681 -67.4670536 295.47898092 -93.88549805 279.88720703 C-96.76939366 278.67717624 -98.89521308 278.70431777 -102 279 C-104.61274615 280.06664783 -104.61274615 280.06664783 -107.09765625 281.67578125 C-108.05430176 282.25166992 -109.01094727 282.82755859 -109.99658203 283.42089844 C-111.00833496 284.04512695 -112.02008789 284.66935547 -113.0625 285.3125 C-115.20481816 286.59874532 -117.34939705 287.88123194 -119.49609375 289.16015625 C-120.57745605 289.80484863 -121.65881836 290.44954102 -122.77294922 291.11376953 C-127.65158235 293.96535976 -132.61806172 296.63179132 -137.625 299.25 C-138.48230713 299.70286377 -139.33961426 300.15572754 -140.22290039 300.62231445 C-147.23275031 304.26429568 -153.01790619 306.65426998 -161 306 C-163.12784427 304.45253217 -163.88368963 303.52699809 -164.45336914 300.94580078 C-164.51389698 293.49091671 -162.31445979 287.67893506 -159.4375 280.875 C-155.83312295 271.93392962 -152.54579293 262.99750981 -149.8125 253.75 C-149.50948975 252.75726074 -149.20647949 251.76452148 -148.89428711 250.74169922 C-146.88305042 243.90811811 -146.88305042 243.90811811 -148 237 C-149.91257239 234.09022094 -149.91257239 234.09022094 -152.375 231.125 C-175.32961448 200.85978515 -181.64283538 160.4827799 -177.625 123.55322266 C-176.64176218 117.18983039 -175.03105133 111.10384998 -173 105 C-172.70528809 104.10796875 -172.41057617 103.2159375 -172.10693359 102.296875 C-166.4279533 85.57001885 -159.11893488 70.80869425 -148 57 C-147.23300781 56.02933594 -146.46601563 55.05867188 -145.67578125 54.05859375 C-138.26869288 44.81545292 -130.31253432 37.31789873 -121 30 C-119.75283203 29.01 -119.75283203 29.01 -118.48046875 28 C-84.26735087 1.93286257 -42.03968693 -6.63126014 0 0 Z " fill="#FEFEF8" transform="translate(277,93)"/>
<path d="M0 0 C1.50438931 -0.01654423 3.0087005 -0.04381485 4.51269531 -0.08203125 C6.68685471 -0.13696442 8.85917452 -0.15869604 11.03393555 -0.17333984 C12.33564697 -0.19315918 13.6373584 -0.21297852 14.97851562 -0.23339844 C19.31146351 0.49449539 20.72841853 1.98636939 23.4519043 5.35009766 C24.70423706 7.85476319 24.58613673 9.56301464 24.59907532 12.36682129 C24.60623062 13.42898361 24.61338593 14.49114594 24.62075806 15.585495 C24.62344696 16.7562709 24.62613586 17.92704681 24.62890625 19.13330078 C24.63547745 20.36289017 24.64204865 21.59247955 24.64881897 22.85932922 C24.66860843 26.95000448 24.68023805 31.04064032 24.69018555 35.13134766 C24.69423477 36.54437784 24.69835174 37.95740783 24.70253563 39.37043762 C24.72161 46.02330652 24.73582493 52.67616431 24.7441476 59.32905531 C24.75386808 66.97149584 24.78004048 74.6136427 24.82064849 82.25598001 C24.85103445 88.1815203 24.86563832 94.10697766 24.86892861 100.0325942 C24.87125769 103.56113298 24.87992978 107.08935902 24.90538979 110.61781311 C25.06643549 134.17873233 24.51747585 157.12013743 7.4519043 175.35009766 C-6.43644187 188.27439376 -24.0386536 191.18147728 -42.29418945 190.69384766 C-56.43480302 189.98970898 -70.27676802 183.28134954 -80.54418945 173.60009766 C-84.13979106 169.56293095 -86.91107322 165.05437046 -89.5480957 160.35009766 C-90.12237305 159.35042969 -90.12237305 159.35042969 -90.70825195 158.33056641 C-91.72037151 155.94384726 -91.95236787 154.00123782 -92.0480957 151.41259766 C-92.0996582 150.57857422 -92.1512207 149.74455078 -92.2043457 148.88525391 C-90.93415688 143.97839352 -86.04567361 141.57888748 -81.92700195 139.07666016 C-80.65891806 138.36883166 -79.38671681 137.6683313 -78.1105957 136.97509766 C-77.48088867 136.60771484 -76.85118164 136.24033203 -76.20239258 135.86181641 C-72.83434568 134.02721738 -70.77567959 133.3556426 -66.8605957 133.26025391 C-62.57950862 134.66877194 -61.43662353 136.42963263 -58.9855957 140.16259766 C-55.33137957 145.66738931 -51.9249777 149.22447032 -45.5480957 151.35009766 C-36.79848635 152.12570696 -36.79848635 152.12570696 -28.4855957 149.85009766 C-22.86124896 145.06341958 -21.21436749 139.55478281 -20.5480957 132.35009766 C-20.40213787 128.25612578 -20.40435879 124.16461352 -20.40625 120.06835938 C-20.40103836 118.23544846 -20.40103836 118.23544846 -20.39572144 116.36550903 C-20.38838568 113.7196995 -20.38270266 111.07393971 -20.37943077 108.42812729 C-20.37349133 104.24233682 -20.35692588 100.05663004 -20.33808899 95.87088013 C-20.33175296 94.43483548 -20.32542732 92.99879079 -20.31911182 91.56274605 C-20.31594601 90.84396916 -20.3127802 90.12519227 -20.30951846 89.38463426 C-20.26750854 79.64836426 -20.23444023 69.912136 -20.22216797 60.17578125 C-20.21378842 53.59508237 -20.19130988 47.01459379 -20.1528123 40.43400013 C-20.1330632 36.95574102 -20.1206435 33.47779616 -20.12564659 29.99947739 C-20.13115458 26.12379351 -20.10589775 22.24864237 -20.078125 18.37304688 C-20.08802711 16.64921783 -20.08802711 16.64921783 -20.09812927 14.89056396 C-20.00642148 7.11606917 -20.00642148 7.11606917 -17.63996887 3.16116333 C-12.68731156 -1.12666243 -6.23241485 0.05023404 0 0 Z " fill="#F97723" transform="translate(269.548095703125,141.64990234375)"/>
<path d="M0 0 C1.71337729 -0.00256327 1.71337729 -0.00256327 3.46136826 -0.00517833 C7.24906632 -0.00844526 11.03658308 0.00248407 14.82426453 0.01345825 C17.55521251 0.0151403 20.28615708 0.01379246 23.0171051 0.01257324 C28.8762426 0.01152937 34.73533523 0.01775364 40.59446144 0.02904892 C49.06555386 0.04536886 57.53662479 0.05051854 66.00773122 0.0530249 C79.75469339 0.05739187 93.5016317 0.07067374 107.24858093 0.08963013 C120.59493389 0.10801486 133.94128035 0.12215865 147.28764343 0.13064575 C148.52361699 0.13143392 148.52361699 0.13143392 149.7845597 0.13223802 C153.91862915 0.13484827 158.05269865 0.13737564 162.18676817 0.13986182 C196.43142931 0.16056319 230.67606211 0.19576137 264.92070007 0.24050903 C264.92070007 0.57050903 264.92070007 0.90050903 264.92070007 1.24050903 C128.79570007 1.73550903 128.79570007 1.73550903 -10.07929993 2.24050903 C-10.40929993 2.90050903 -10.73929993 3.56050903 -11.07929993 4.24050903 C-18.00929993 3.74550903 -18.00929993 3.74550903 -25.07929993 3.24050903 C-25.07929993 2.91050903 -25.07929993 2.58050903 -25.07929993 2.24050903 C-16.65286018 0.746012 -8.5524862 -0.04791118 0 0 Z " fill="#E78852" transform="translate(123.07929992675781,41.759490966796875)"/>
<path d="M0 0 C0.83778992 0.00707474 1.67557983 0.01414948 2.53875732 0.0214386 C5.20904647 0.04938059 7.87722208 0.11211512 10.546875 0.17578125 C12.35934467 0.20086454 14.17184728 0.22367766 15.984375 0.24414062 C20.42268671 0.29920621 24.85942281 0.38547458 29.296875 0.48828125 C28.636875 1.80828125 27.976875 3.12828125 27.296875 4.48828125 C26.801875 3.99328125 26.801875 3.99328125 26.296875 3.48828125 C21.81063971 3.19711087 17.31868599 3.17420944 12.82421875 3.13818359 C11.31299401 3.12165862 9.80184631 3.09441364 8.29101562 3.05615234 C6.11026545 3.00120356 3.93135051 2.97948221 1.75 2.96484375 C0.44192383 2.94502441 -0.86615234 2.92520508 -2.21386719 2.90478516 C-6.83470341 3.67751106 -7.95472248 4.68389044 -10.703125 8.48828125 C-11.45033901 12.4805646 -11.37241077 16.42798244 -11.33081055 20.47949219 C-11.33808167 21.69471558 -11.34535278 22.90993896 -11.35284424 24.1619873 C-11.36506135 26.80084233 -11.36825259 29.43785502 -11.35584068 32.07653046 C-11.33625716 36.25501314 -11.35152374 40.43293402 -11.37129211 44.61138916 C-11.39843229 51.22688995 -11.40193617 57.84216123 -11.39551908 64.45770669 C-11.38458862 76.28741294 -11.40931871 88.1170483 -11.44926673 99.94668412 C-11.46228043 104.09308071 -11.46363044 108.23926652 -11.4551338 112.38567305 C-11.45062979 115.58362021 -11.45835304 118.78154843 -11.46362305 121.97949219 C-11.45508049 123.68646271 -11.45508049 123.68646271 -11.44636536 125.42791748 C-11.50782935 142.0568358 -11.50782935 142.0568358 -16.703125 147.48828125 C-16.22899587 145.06889427 -15.74345339 142.65910535 -15.17694664 140.25948048 C-13.61574774 133.39176812 -13.42243031 126.79733937 -13.44775391 119.77416992 C-13.44413345 118.54203766 -13.440513 117.3099054 -13.43678284 116.04043579 C-13.42992083 113.38150808 -13.42648637 110.72283488 -13.42873001 108.06392479 C-13.43158419 103.85686355 -13.41713634 99.64996732 -13.39974976 95.44294739 C-13.3529127 83.48746149 -13.32876662 71.53198975 -13.32226562 59.57641602 C-13.31851469 52.95725554 -13.30049309 46.3382848 -13.26717126 39.71920568 C-13.24698382 35.53899171 -13.24457209 31.35926781 -13.25545144 27.17902505 C-13.25867173 23.97108053 -13.23596833 20.76330032 -13.21728516 17.55541992 C-13.22545761 16.40156296 -13.23363007 15.24770599 -13.24205017 14.05888367 C-13.16159865 6.31466208 -13.16159865 6.31466208 -10.91738892 2.26956177 C-7.53734765 -0.44953672 -4.13964427 -0.13179731 0 0 Z " fill="#FEF3D9" transform="translate(261.703125,139.51171875)"/>
<path d="M0 0 C0.66 0.33 1.32 0.66 2 1 C1.34936584 1.72792755 0.69873169 2.4558551 0.02838135 3.20584106 C-3.25836912 8.18936346 -2.52286675 13.95244281 -2.45410156 19.70654297 C-2.45497772 21.62443382 -2.45497772 21.62443382 -2.45587158 23.58106995 C-2.45701615 27.07463184 -2.43354943 30.56764096 -2.40557575 34.06107473 C-2.3805187 37.71656055 -2.37821672 41.37205996 -2.37347412 45.02761841 C-2.36105692 51.94427881 -2.32825254 58.8606854 -2.28807616 65.7772342 C-2.24331917 73.6538502 -2.22136158 81.53047851 -2.20129442 89.40719008 C-2.1595186 105.60494181 -2.08919126 121.80243848 -2 138 C-2.99 138.33 -3.98 138.66 -5 139 C-5 139.99 -5 140.98 -5 142 C-5.66 142 -6.32 142 -7 142 C-6.8585877 141.35369314 -6.71717541 140.70738628 -6.57147789 140.04149437 C-5.08899321 132.71468576 -4.71741919 125.72500559 -4.74462891 118.26416016 C-4.74100845 117.04163544 -4.737388 115.81911072 -4.73365784 114.55953979 C-4.72680225 111.92463801 -4.72335881 109.28999329 -4.72560501 106.65510941 C-4.72846268 102.48577317 -4.71399908 98.31660295 -4.69662476 94.14730835 C-4.64981885 82.30021584 -4.6256392 70.45313809 -4.61914062 58.60595703 C-4.61538968 52.04428724 -4.59736965 45.48280886 -4.56404626 38.92122114 C-4.54386354 34.77863818 -4.54144452 30.63654971 -4.55232644 26.49393773 C-4.55554673 23.31570584 -4.53284376 20.13763981 -4.51416016 16.95947266 C-4.52233261 15.81653748 -4.53050507 14.67360229 -4.53892517 13.49603271 C-4.45750203 5.7311142 -4.45750203 5.7311142 -1.96786499 1.75253296 C-1.31846954 1.17419708 -0.6690741 0.59586121 0 0 Z " fill="#DA712F" transform="translate(254,143)"/>
<path d="M0 0 C0.66 0 1.32 0 2 0 C2.07003234 17.81074565 2.12295979 35.62145565 2.15543652 53.43230915 C2.17091578 61.70190847 2.19202544 69.97142233 2.22631836 78.2409668 C2.25618841 85.44738499 2.2755673 92.65374129 2.28226548 99.86021966 C2.28618184 103.67721382 2.29540755 107.4940309 2.31719017 111.3109684 C2.33751764 114.90193811 2.34384148 118.49265742 2.33932304 122.0836792 C2.34054489 124.0333322 2.35670658 125.98295779 2.3732605 127.93254089 C2.36913651 129.08940399 2.36501251 130.24626709 2.36076355 131.43818665 C2.36352893 132.44570638 2.36629431 133.45322611 2.36914349 134.49127674 C1.946377 137.36442543 1.25310458 138.24261825 -1 140 C-0.92912957 139.42974405 -0.85825914 138.85948811 -0.78524113 138.27195168 C0.02250878 131.1420716 0.13537842 124.10133306 0.11352539 116.93115234 C0.11367142 115.66172791 0.11381744 114.39230347 0.1139679 113.08441162 C0.11425253 109.63468609 0.10841023 106.18499597 0.10139394 102.73527861 C0.09510438 99.11849368 0.0945522 95.50170777 0.09336853 91.88491821 C0.09027164 85.0499618 0.08208056 78.21502156 0.07201904 71.38007224 C0.06080669 63.59280816 0.05533459 55.80554327 0.05032361 48.01827312 C0.03989642 32.01217274 0.02232904 16.00608846 0 0 Z " fill="#FFF4E0" transform="translate(293,148)"/>
<path d="M0 0 C1.3282512 3.98475361 0.34387362 6.04583826 -0.8125 10.0625 C-1.56776126 12.70455112 -2.3028155 15.34282946 -3 18 C-3.18530273 18.68352539 -3.37060547 19.36705078 -3.56152344 20.07128906 C-5.62788071 28.78461711 -5.45733107 37.71933477 -5.625 46.625 C-5.66325702 48.31382052 -5.702313 50.00262314 -5.7421875 51.69140625 C-5.83733889 55.79412246 -5.92167039 59.89692957 -6 64 C-6.66 64 -7.32 64 -8 64 C-8.0246501 58.89136104 -8.04283607 53.78275641 -8.05493164 48.67407227 C-8.05997204 46.93480832 -8.0668043 45.19554864 -8.07543945 43.45629883 C-8.08751792 40.96174063 -8.09323108 38.46723827 -8.09765625 35.97265625 C-8.10281754 35.19036148 -8.10797882 34.40806671 -8.11329651 33.60206604 C-8.11349226 31.73432886 -8.06199694 29.86670796 -8 28 C-7.67 27.67 -7.34 27.34 -7 27 C-6.76636119 25.15108054 -6.58696365 23.29511969 -6.4375 21.4375 C-6.35371094 20.42558594 -6.26992187 19.41367188 -6.18359375 18.37109375 C-6.12300781 17.58863281 -6.06242187 16.80617187 -6 16 C-5.34 16 -4.68 16 -4 16 C-4.04125 15.175 -4.0825 14.35 -4.125 13.5 C-3.97786007 9.38008185 -3.09476605 5.96852693 -2 2 C-1.34 2 -0.68 2 0 2 C0 1.34 0 0.68 0 0 Z " fill="#E68A50" transform="translate(105,192)"/>
<path d="M0 0 C0.65669678 0.09087891 1.31339355 0.18175781 1.98999023 0.27539062 C24.53442704 3.32167225 46.43648142 4.22747648 69 1 C69 1.66 69 2.32 69 3 C58.78649063 5.3601524 48.6856458 5.2745043 38.26025391 5.20581055 C35.34659247 5.18731972 32.4332458 5.18530297 29.51953125 5.18554688 C27.6666639 5.18063897 25.8137987 5.17481386 23.9609375 5.16796875 C23.09020599 5.16685593 22.21947449 5.1657431 21.32235718 5.16459656 C15.23229975 5.11614988 15.23229975 5.11614988 13 4 C10.9625237 3.77141886 8.91959697 3.58975722 6.875 3.4375 C5.23144531 3.31181641 5.23144531 3.31181641 3.5546875 3.18359375 C2.71164063 3.12300781 1.86859375 3.06242187 1 3 C0.67 2.01 0.34 1.02 0 0 Z " fill="#E37B3A" transform="translate(215,384)"/>
<path d="M0 0 C1.16764893 0.00193359 2.33529785 0.00386719 3.53833008 0.00585938 C13.00947811 0.05273658 22.43040118 0.43363067 31.875 1.125 C31.875 1.785 31.875 2.445 31.875 3.125 C34.185 3.455 36.495 3.785 38.875 4.125 C35.41178469 5.28485041 32.92991769 4.94760482 29.375 4.25 C11.4802835 1.0744388 -7.07038778 1.39964457 -25.125 3.125 C-25.125 2.465 -25.125 1.805 -25.125 1.125 C-16.73154294 0.29342075 -8.43241496 -0.03410728 0 0 Z " fill="#E47D3D" transform="translate(249.125,89.875)"/>
<path d="M0 0 C-1.2739589 2.03833424 -2.61061923 4.03852126 -4 6 C-4.66 6 -5.32 6 -6 6 C-6 5.01 -6 4.02 -6 3 C-7.65 3 -9.3 3 -11 3 C-11 3.66 -11 4.32 -11 5 C-21.56 5 -32.12 5 -43 5 C-43.33 4.34 -43.66 3.68 -44 3 C-42.94425781 3.0314209 -42.94425781 3.0314209 -41.8671875 3.06347656 C-29.03585237 3.39431059 -17.11248535 3.62437831 -4.78125 -0.22265625 C-2 -1 -2 -1 0 0 Z " fill="#FEF0D7" transform="translate(262,328)"/>
<path d="M0 0 C0.93065133 2.60582371 1.14917407 3.64198224 0.0625 6.25 C-0.4634375 7.11625 -0.4634375 7.11625 -1 8 C-1.66 8 -2.32 8 -3 8 C-2.896875 8.763125 -2.79375 9.52625 -2.6875 10.3125 C-2.790625 11.199375 -2.89375 12.08625 -3 13 C-5.0625 14.375 -5.0625 14.375 -8 16 C-10.43765167 18.2336422 -12.71511094 20.61151395 -15 23 C-15.66 23.66 -16.32 24.32 -17 25 C-18.32 24.34 -19.64 23.68 -21 23 C-20.35933594 22.59910156 -19.71867187 22.19820313 -19.05859375 21.78515625 C-10.28443838 16.0185355 -4.89089253 9.19487796 0 0 Z " fill="#FDF1DD" transform="translate(287,301)"/>
<path d="M0 0 C0.99 0.66 1.98 1.32 3 2 C5.15274948 1.69159401 5.15274948 1.69159401 7 1 C6.62488281 1.43570313 6.24976563 1.87140625 5.86328125 2.3203125 C2.54140223 6.18607599 -0.74642927 10.07657648 -4 14 C-5 12 -5 12 -4.5 10.1875 C-3.88990494 7.51833411 -4.34243737 5.63025054 -5 3 C-3.35 2.01 -1.7 1.02 0 0 Z " fill="#F1792F" transform="translate(137,132)"/>
<path d="M0 0 C0 0.33 0 0.66 0 1 C-14.74146721 3.9518075 -28.99219986 4.35842266 -44 4 C-44 3.67 -44 3.34 -44 3 C-43.41508789 2.97494385 -42.83017578 2.9498877 -42.22753906 2.92407227 C-39.56815529 2.80777038 -36.90909597 2.68519933 -34.25 2.5625 C-32.86941406 2.50352539 -32.86941406 2.50352539 -31.4609375 2.44335938 C-30.57148438 2.40146484 -29.68203125 2.35957031 -28.765625 2.31640625 C-27.94868164 2.27974854 -27.13173828 2.24309082 -26.29003906 2.20532227 C-24.0904218 2.00810711 -22.12990895 1.56379133 -20 1 C-13.34852966 0.29572667 -6.68874778 -0.15555227 0 0 Z " fill="#FDEDD1" transform="translate(285,384)"/>
<path d="M0 0 C2.77557685 3.25275338 3.95772823 6.36181962 5.1875 10.4375 C5.53167969 11.54996094 5.87585938 12.66242188 6.23046875 13.80859375 C6.92700084 16.69725728 7.15992961 19.04957436 7 22 C6.34 21.67 5.68 21.34 5 21 C4.375 18.9375 4.375 18.9375 4 17 C2.02 17.99 2.02 17.99 0 19 C-0.125 16.125 -0.125 16.125 0 13 C0.66 12.34 1.32 11.68 2 11 C1.71433121 8.64934822 1.71433121 8.64934822 1 6 C0.66055205 4.00102872 0.32578384 2.00124361 0 0 Z " fill="#EC7934" transform="translate(450,84)"/>
<path d="M0 0 C1.31068708 3.93206125 0.39593997 5.84738162 -0.75 9.8125 C-2.81999392 17.15411458 -4.4792404 24.52293199 -6 32 C-6.66 30.68 -7.32 29.36 -8 28 C-7.67 27.67 -7.34 27.34 -7 27 C-6.76636119 25.15108054 -6.58696365 23.29511969 -6.4375 21.4375 C-6.35371094 20.42558594 -6.26992187 19.41367188 -6.18359375 18.37109375 C-6.12300781 17.58863281 -6.06242187 16.80617187 -6 16 C-5.34 16 -4.68 16 -4 16 C-4.04125 15.175 -4.0825 14.35 -4.125 13.5 C-3.97786007 9.38008185 -3.09476605 5.96852693 -2 2 C-1.34 2 -0.68 2 0 2 C0 1.34 0 0.68 0 0 Z " fill="#E67B37" transform="translate(105,192)"/>
<path d="M0 0 C0 0.99 0 1.98 0 3 C-0.99 3.495 -0.99 3.495 -2 4 C-1.01 4.33 -0.02 4.66 1 5 C0.67 6.65 0.34 8.3 0 10 C-2.97 9.505 -2.97 9.505 -6 9 C-6 8.67 -6 8.34 -6 8 C-7.65 7.67 -9.3 7.34 -11 7 C-7.53258866 4.04250209 -4.13126473 1.92151848 0 0 Z " fill="#F97725" transform="translate(143,389)"/>
<path d="M0 0 C4.31417789 0.4433683 8.62591056 0.90718018 12.9375 1.375 C14.78504883 1.56449219 14.78504883 1.56449219 16.66992188 1.7578125 C17.83974609 1.88671875 19.00957031 2.015625 20.21484375 2.1484375 C21.84087524 2.32125244 21.84087524 2.32125244 23.49975586 2.49755859 C24.32483643 2.66336426 25.14991699 2.82916992 26 3 C26.33 3.66 26.66 4.32 27 5 C25.04174127 5.02694851 23.08337774 5.04637218 21.125 5.0625 C19.48917969 5.07990234 19.48917969 5.07990234 17.8203125 5.09765625 C15 5 15 5 13 4 C10.9625237 3.77141886 8.91959697 3.58975722 6.875 3.4375 C5.23144531 3.31181641 5.23144531 3.31181641 3.5546875 3.18359375 C2.71164063 3.12300781 1.86859375 3.06242187 1 3 C0.67 2.01 0.34 1.02 0 0 Z " fill="#E98141" transform="translate(215,384)"/>
<path d="M0 0 C0.33 0 0.66 0 1 0 C1.66 3.96 2.32 7.92 3 12 C3.99 12 4.98 12 6 12 C5.814375 12.61875 5.62875 13.2375 5.4375 13.875 C4.81347512 18.3323206 5.43896305 22.55486111 6 27 C3.71181908 23.56772861 2.85248874 20.25503793 1.875 16.3125 C1.60236328 15.28866211 1.60236328 15.28866211 1.32421875 14.24414062 C0.10251468 9.38028873 -0.1687743 5.01259657 0 0 Z " fill="#E27836" transform="translate(42,384)"/>
<path d="M0 0 C0.75 1.625 0.75 1.625 1 4 C-1.54867183 8.99539678 -4.03883224 10.6712886 -9 13 C-11.81356892 15.56197123 -11.81356892 15.56197123 -14 18 C-14.66 17.67 -15.32 17.34 -16 17 C-14.15625 15.15625 -14.15625 15.15625 -12.3125 13.3125 C-11.58289063 12.58160156 -10.85328125 11.85070312 -10.1015625 11.09765625 C-8.47305895 9.47217966 -6.83266772 7.85860844 -5.1875 6.25 C-3.25353639 4.26078029 -1.59429345 2.26557491 0 0 Z " fill="#E87F3E" transform="translate(367,334)"/>
<path d="M0 0 C2 3 2 3 2 5 C-1.88262534 6.82711781 -4.75627166 7 -9 7 C-11.30230766 7.89831016 -11.30230766 7.89831016 -13 9 C-9.15080717 4.66965806 -5.27710354 2.3439244 0 0 Z " fill="#EA7C32" transform="translate(192,279)"/>
<path d="M0 0 C9.81779428 2.5365122 18.78892755 5.8004229 28 10 C24.50576734 11.23654352 22.72891884 10.7818879 19.375 9.3125 C18.50359375 8.94125 17.6321875 8.57 16.734375 8.1875 C15.83203125 7.795625 14.9296875 7.40375 14 7 C12.21112688 6.26400649 10.41954097 5.53456382 8.625 4.8125 C7.83351563 4.48894531 7.04203125 4.16539063 6.2265625 3.83203125 C4.16417575 3.06134988 2.14540646 2.48492064 0 2 C0 1.34 0 0.68 0 0 Z " fill="#FEEAD2" transform="translate(291,96)"/>
<path d="M0 0 C2.64 0 5.28 0 8 0 C8.33 0.66 8.66 1.32 9 2 C9.66 1.34 10.32 0.68 11 0 C11.66 0.66 12.32 1.32 13 2 C12.34 2 11.68 2 11 2 C11 3.32 11 4.64 11 6 C12.32 6.66 13.64 7.32 15 8 C14.67 8.66 14.34 9.32 14 10 C12.41606974 8.8966898 10.83288132 7.79231456 9.25 6.6875 C8.36828125 6.07261719 7.4865625 5.45773438 6.578125 4.82421875 C4.35567831 3.25166935 2.16807006 1.64631488 0 0 Z " fill="#EB7C37" transform="translate(329,112)"/>
<path d="M0 0 C0.99 0.33 1.98 0.66 3 1 C2.67 1.33 2.34 1.66 2 2 C1.5408904 7.66946971 1.76839644 12.69994154 4 18 C2.68 17.67 1.36 17.34 0 17 C-0.19436491 14.54203147 -0.3807742 12.08390706 -0.5625 9.625 C-0.61857422 8.92632812 -0.67464844 8.22765625 -0.73242188 7.5078125 C-1.11328125 2.2265625 -1.11328125 2.2265625 0 0 Z " fill="#FEE9D1" transform="translate(177,286)"/>
<path d="M0 0 C4.41889613 1.35021826 6.34345343 3.26115668 9 7 C7.02 7.99 7.02 7.99 5 9 C5 8.34 5 7.68 5 7 C4.01 6.67 3.02 6.34 2 6 C2 5.34 2 4.68 2 4 C1.34 4 0.68 4 0 4 C0 2.68 0 1.36 0 0 Z " fill="#FDF4E4" transform="translate(336,117)"/>
<path d="M0 0 C3.9252025 3.70090521 6.94580156 7.54959656 10 12 C9.67 12.66 9.34 13.32 9 14 C6.5625 13.375 6.5625 13.375 4 12 C3.375 9.0625 3.375 9.0625 3 6 C1.50014391 4.33289654 1.50014391 4.33289654 0 3 C0 2.01 0 1.02 0 0 Z " fill="#FDEED7" transform="translate(368,146)"/>
<path d="M0 0 C-1.95519384 1.17192047 -3.9142539 2.3373929 -5.875 3.5 C-6.96554688 4.1496875 -8.05609375 4.799375 -9.1796875 5.46875 C-12 7 -12 7 -14 7 C-14 6.01 -14 5.02 -14 4 C-12.42466914 3.13116294 -10.83935491 2.28040932 -9.25 1.4375 C-8.36828125 0.96183594 -7.4865625 0.48617187 -6.578125 -0.00390625 C-3.79298812 -1.07998186 -2.73019786 -1.06528748 0 0 Z " fill="#E97D35" transform="translate(181,108)"/>
<path d="M0 0 C1 3 1 3 2 6 C1.34 6.66 0.68 7.32 0 8 C-0.66 7.67 -1.32 7.34 -2 7 C-2 6.34 -2 5.68 -2 5 C-3.98 5.33 -5.96 5.66 -8 6 C-5.38485683 3.87961365 -2.80362384 1.86908256 0 0 Z " fill="#EF7C34" transform="translate(341,359)"/>
<path d="M0 0 C0 0.66 0 1.32 0 2 C0.66 2 1.32 2 2 2 C2.66 4.97 3.32 7.94 4 11 C0.71211176 7.88983545 -1.83735988 4.98381075 -4 1 C-2 0 -2 0 0 0 Z " fill="#EE7A33" transform="translate(372,144)"/>
<path d="M0 0 C0.59425781 0.30550781 1.18851562 0.61101562 1.80078125 0.92578125 C4.12713925 2.10640781 4.12713925 2.10640781 7.1875 3.1875 C10 5 10 5 10.875 8.6875 C10.91625 9.780625 10.9575 10.87375 11 12 C7.08060535 8.19588166 3.50897269 4.18423892 0 0 Z " fill="#EA7F39" transform="translate(356,132)"/>
<path d="M0 0 C2.59381229 3.89071844 2.63187808 6.36166385 3 11 C2.67 11.66 2.34 12.32 2 13 C2.39938767 15.09821215 2.39938767 15.09821215 3 17 C2.34 17.33 1.68 17.66 1 18 C-0.2039337 14.24600202 -0.09877617 10.66782588 -0.0625 6.75 C-0.05347656 5.48671875 -0.04445312 4.2234375 -0.03515625 2.921875 C-0.02355469 1.95765625 -0.01195312 0.9934375 0 0 Z " fill="#F17A29" transform="translate(43,376)"/>
<path d="M0 0 C0.99 0.33 1.98 0.66 3 1 C3.17835515 5.54805635 2.99785435 8.8794254 1 13 C0.01 12.67 -0.98 12.34 -2 12 C-1.67 10.948125 -1.34 9.89625 -1 8.8125 C-0.16033218 5.61126643 0.19750904 3.2588992 0 0 Z " fill="#FDF1DD" transform="translate(130,331)"/>
<path d="M0 0 C0 3.20395416 -0.74335022 5.09399739 -2 8 C-3.32 7.34 -4.64 6.68 -6 6 C-6 5.01 -6 4.02 -6 3 C-4.02 2.01 -2.04 1.02 0 0 Z M-7 6 C-6.67 6.66 -6.34 7.32 -6 8 C-6.66 7.67 -7.32 7.34 -8 7 C-7.67 6.67 -7.34 6.34 -7 6 Z " fill="#EF782B" transform="translate(86,48)"/>
<path d="M0 0 C1.98 0.66 3.96 1.32 6 2 C6 3.98 6 5.96 6 8 C5.34 7.34 4.68 6.68 4 6 C1.93125966 5.3574765 1.93125966 5.3574765 0 5 C-0.5625 3.0625 -0.5625 3.0625 -1 1 C-0.67 0.67 -0.34 0.34 0 0 Z " fill="#F2772B" transform="translate(411,48)"/>
<path d="M0 0 C0.5775 0.20625 1.155 0.4125 1.75 0.625 C-4.14895571 4.6699982 -10.32303328 3.90248976 -17.25 3.625 C-17.25 3.295 -17.25 2.965 -17.25 2.625 C-16.50234375 2.57601563 -15.7546875 2.52703125 -14.984375 2.4765625 C-13.99953125 2.40179688 -13.0146875 2.32703125 -12 2.25 C-10.53820312 2.14558594 -10.53820312 2.14558594 -9.046875 2.0390625 C-5.67994835 1.54060688 -3.31365236 -0.55227539 0 0 Z " fill="#FDEDD4" transform="translate(241.25,290.375)"/>
<path d="M0 0 C0.99 0.66 1.98 1.32 3 2 C1.515 7.445 1.515 7.445 0 13 C-0.66 12.34 -1.32 11.68 -2 11 C-2 10.01 -2 9.02 -2 8 C-1.34 8 -0.68 8 0 8 C-0.2784375 6.2984375 -0.2784375 6.2984375 -0.5625 4.5625 C-0.7790625 2.7990625 -0.7790625 2.7990625 -1 1 C-0.67 0.67 -0.34 0.34 0 0 Z " fill="#EB7D38" transform="translate(125,344)"/>
<path d="M0 0 C-0.33 0.99 -0.66 1.98 -1 3 C-7.93 2.505 -7.93 2.505 -15 2 C-15 1.67 -15 1.34 -15 1 C-10.03926578 -0.32286246 -5.08888488 -0.08893197 0 0 Z " fill="#E97E3E" transform="translate(113,43)"/>
<path d="M0 0 C1.15957207 3.47871621 0.77456651 4.34219645 -0.4375 7.6875 C-0.72496094 8.49574219 -1.01242187 9.30398438 -1.30859375 10.13671875 C-1.53675781 10.75160156 -1.76492188 11.36648438 -2 12 C-3.5625 10.1875 -3.5625 10.1875 -5 8 C-4.67 7.01 -4.34 6.02 -4 5 C-3.34 5 -2.68 5 -2 5 C-1.34 3.35 -0.68 1.7 0 0 Z " fill="#E9792E" transform="translate(455,400)"/>
<path d="M0 0 C1.32 0.33 2.64 0.66 4 1 C-0.455 3.97 -0.455 3.97 -5 7 C-5 5.35 -5 3.7 -5 2 C-4.01 1.67 -3.02 1.34 -2 1 C-1.67 1.33 -1.34 1.66 -1 2 C-0.67 1.34 -0.34 0.68 0 0 Z " fill="#FDF3DC" transform="translate(342,355)"/>
<path d="M0 0 C0.33 0 0.66 0 1 0 C1 7.25 1 7.25 0 11 C-0.33 10.01 -0.66 9.02 -1 8 C-1.99 8.33 -2.98 8.66 -4 9 C-2.80100302 5.9168649 -1.52299523 2.93720508 0 0 Z " fill="#EA7D38" transform="translate(383,311)"/>
<path d="M0 0 C0.66 0.33 1.32 0.66 2 1 C1.01 2.485 1.01 2.485 0 4 C-1.32 4 -2.64 4 -4 4 C-4 4.66 -4 5.32 -4 6 C-5.98 6.33 -7.96 6.66 -10 7 C-7.20283196 3.70921407 -3.80471422 1.93694542 0 0 Z " fill="#FDEDD5" transform="translate(174,111)"/>
<path d="M0 0 C0.33 0 0.66 0 1 0 C1 3.3 1 6.6 1 10 C-0.32 10.33 -1.64 10.66 -3 11 C-2.01 7.37 -1.02 3.74 0 0 Z " fill="#FEEDD5" transform="translate(125,354)"/>
<path d="M0 0 C2.97 0.495 2.97 0.495 6 1 C6 1.66 6 2.32 6 3 C7.65 3.33 9.3 3.66 11 4 C11 4.99 11 5.98 11 7 C7.37 5.02 3.74 3.04 0 1 C0 0.67 0 0.34 0 0 Z " fill="#E47D40" transform="translate(196,320)"/>
<path d="M0 0 C0.66 0.33 1.32 0.66 2 1 C2.625 4.0625 2.625 4.0625 3 7 C2.01 7.33 1.02 7.66 0 8 C0 8.99 0 9.98 0 11 C-0.66 11 -1.32 11 -2 11 C-1.34 7.37 -0.68 3.74 0 0 Z " fill="#EA8038" transform="translate(249,274)"/>
<path d="M0 0 C0.99 0 1.98 0 3 0 C3 2 3 2 1.3125 4.1875 C-1 6 -1 6 -3.75 5.75 C-4.4925 5.5025 -5.235 5.255 -6 5 C-5.34 4.34 -4.68 3.68 -4 3 C-3.01 3 -2.02 3 -1 3 C-0.67 2.01 -0.34 1.02 0 0 Z " fill="#F47D2E" transform="translate(285,384)"/>
<path d="M0 0 C0.78375 0.04125 1.5675 0.0825 2.375 0.125 C0.1741151 2.60359908 -1.68872969 3.73710366 -4.8125 4.8125 C-5.88564453 5.18955078 -5.88564453 5.18955078 -6.98046875 5.57421875 C-7.52316406 5.75597656 -8.06585938 5.93773437 -8.625 6.125 C-8.625 5.465 -8.625 4.805 -8.625 4.125 C-8.00625 3.83625 -7.3875 3.5475 -6.75 3.25 C-0.67151163 0.03197674 -0.67151163 0.03197674 0 0 Z " fill="#E67F40" transform="translate(264.625,322.875)"/>
<path d="M0 0 C0 0.99 0 1.98 0 3 C-1.65 3.33 -3.3 3.66 -5 4 C-5.33 4.99 -5.66 5.98 -6 7 C-7.65 7 -9.3 7 -11 7 C-7.53258866 4.04250209 -4.13126473 1.92151848 0 0 Z " fill="#EA8144" transform="translate(143,389)"/>
<path d="M0 0 C0.99 0 1.98 0 3 0 C5.09350689 3.4019487 5.17942163 6.05272412 5 10 C2.35534962 6.8745041 1.15585285 3.91211733 0 0 Z " fill="#FEF2DB" transform="translate(112,300)"/>
<path d="M0 0 C1.65 0.99 3.3 1.98 5 3 C4.01 3.33 3.02 3.66 2 4 C1.67 4.66 1.34 5.32 1 6 C0.01 5.67 -0.98 5.34 -2 5 C-1.125 1.125 -1.125 1.125 0 0 Z " fill="#F1792A" transform="translate(214,288)"/>
<path d="M0 0 C2 3 2 3 2 5 C-1.62326739 6.2077558 -2.64146369 5.54311128 -6 4 C-4.03617993 2.49440461 -2.21736634 1.10868317 0 0 Z " fill="#F0823B" transform="translate(192,279)"/>
<path d="M0 0 C-2.88087546 2.40072955 -5.56404834 4.47291037 -9 6 C-9 5.34 -9 4.68 -9 4 C-8.34 4 -7.68 4 -7 4 C-7 3.01 -7 2.02 -7 1 C-4.53721199 -0.231394 -2.7204945 -0.07159196 0 0 Z " fill="#EA7B3C" transform="translate(167,115)"/>
<path d="M0 0 C2.97 1.98 2.97 1.98 6 4 C5.34 5.32 4.68 6.64 4 8 C3.34 7.67 2.68 7.34 2 7 C2 6.01 2 5.02 2 4 C1.34 4 0.68 4 0 4 C0 2.68 0 1.36 0 0 Z " fill="#EF7C35" transform="translate(426,55)"/>
<path d="M0 0 C1.32 0.33 2.64 0.66 4 1 C4.33 3.64 4.66 6.28 5 9 C2.67527795 6.14693203 1.2491742 3.45925163 0 0 Z " fill="#E37735" transform="translate(48,412)"/>
<path d="M0 0 C3.63 0.33 7.26 0.66 11 1 C11.33 1.99 11.66 2.98 12 4 C6.06 2.515 6.06 2.515 0 1 C0 0.67 0 0.34 0 0 Z " fill="#FCE4CB" transform="translate(202,380)"/>
<path d="M0 0 C1.66832577 2.50248865 2.62381674 4.41149187 3.625 7.1875 C4.01558594 8.26064453 4.01558594 8.26064453 4.4140625 9.35546875 C4.60742188 9.89816406 4.80078125 10.44085938 5 11 C4.01 11 3.02 11 2 11 C0.80712589 7.12315913 0 4.08378077 0 0 Z " fill="#E78242" transform="translate(107,289)"/>
<path d="M0 0 C1.4540625 0.0309375 1.4540625 0.0309375 2.9375 0.0625 C1.2875 1.7125 -0.3625 3.3625 -2.0625 5.0625 C-2.7225 3.7425 -3.3825 2.4225 -4.0625 1.0625 C-3.0625 0.0625 -3.0625 0.0625 0 0 Z " fill="#ED7E3A" transform="translate(147.0625,127.9375)"/>
<path d="M0 0 C0.99 0.99 1.98 1.98 3 3 C2.34 3 1.68 3 1 3 C1 3.99 1 4.98 1 6 C-0.32 6.33 -1.64 6.66 -3 7 C-2.38722388 4.03824877 -1.74627478 2.61941217 0 0 Z " fill="#F37830" transform="translate(437,65)"/>
<path d="M0 0 C1.32 0.33 2.64 0.66 4 1 C3.01 1.33 2.02 1.66 1 2 C1.33 2.99 1.66 3.98 2 5 C-0.31 4.67 -2.62 4.34 -5 4 C-2 2 -2 2 0 2 C0 1.34 0 0.68 0 0 Z " fill="#EF782F" transform="translate(91,448)"/>
<path d="M0 0 C3.96 0.99 3.96 0.99 8 2 C8 2.33 8 2.66 8 3 C6.71254964 3.38922918 5.41980403 3.76098036 4.125 4.125 C3.04605469 4.43824219 3.04605469 4.43824219 1.9453125 4.7578125 C1.30335938 4.83773438 0.66140625 4.91765625 0 5 C-0.66 4.34 -1.32 3.68 -2 3 C-1.34 3 -0.68 3 0 3 C0 2.01 0 1.02 0 0 Z " fill="#FEF3E0" transform="translate(210,328)"/>
<path d="M0 0 C2.475 0.495 2.475 0.495 5 1 C5 1.66 5 2.32 5 3 C5.99 2.67 6.98 2.34 8 2 C8.66 2.66 9.32 3.32 10 4 C8.375 4.75 8.375 4.75 6 5 C2.75 3.125 2.75 3.125 0 1 C0 0.67 0 0.34 0 0 Z " fill="#FDE8CE" transform="translate(215,288)"/>
<path d="M0 0 C0.66 0.33 1.32 0.66 2 1 C0.35 2.98 -1.3 4.96 -3 7 C-4.32 6.67 -5.64 6.34 -7 6 C-4.69 4.02 -2.38 2.04 0 0 Z " fill="#FEF0D4" transform="translate(158,121)"/>
<path d="M0 0 C3.3 0 6.6 0 10 0 C10.33 1.32 10.66 2.64 11 4 C7.1936543 3.32829194 3.64793184 2.27253436 0 1 C0 0.67 0 0.34 0 0 Z " fill="#E67D3D" transform="translate(299,98)"/>
<path d="M0 0 C-0.66 1.32 -1.32 2.64 -2 4 C-4.97 4 -7.94 4 -11 4 C-7.61125486 1.74083657 -4.15175481 0 0 0 Z " fill="#F9E5CC" transform="translate(210,96)"/>
<path d="M0 0 C0.99 0.33 1.98 0.66 3 1 C1.38405168 3.04119788 -0.2856382 5.04072937 -2 7 C-2.66 7 -3.32 7 -4 7 C-2.92598892 4.08482708 -2.22189824 2.22189824 0 0 Z " fill="#FFEDD6" transform="translate(367,331)"/>
<path d="M0 0 C0.99 0 1.98 0 3 0 C1.92598892 2.91517292 1.22189824 4.77810176 -1 7 C-1.04254356 5.00045254 -1.04080783 2.99958364 -1 1 C-0.67 0.67 -0.34 0.34 0 0 Z " fill="#E97F3D" transform="translate(282,304)"/>
<path d="M0 0 C0.68707555 2.49064888 1 4.37886292 1 7 C-0.98 7.99 -0.98 7.99 -3 9 C-2.30058404 5.85262818 -1.23921302 2.97411124 0 0 Z " fill="#FBE7D2" transform="translate(115,171)"/>
<path d="M0 0 C1 2 1 2 0.25 4.5625 C-1 7 -1 7 -4 8 C-2.87548273 5.0280615 -1.77706209 2.66559313 0 0 Z " fill="#FEF1DA" transform="translate(123,158)"/>
<path d="M0 0 C1.98 0.66 3.96 1.32 6 2 C5.34 2.66 4.68 3.32 4 4 C3.34 3.67 2.68 3.34 2 3 C1.67 3.99 1.34 4.98 1 6 C0.4465236 3.92446352 0 2.15634036 0 0 Z " fill="#FEF4E2" transform="translate(320,108)"/>
</svg>
